HIERARCHY
ROOT Bip001_Pelvis
{
  OFFSET 34.4345 95.6767 -26.8758
  CHANNELS 6 Xposition Yposition Zposition Zrotation Xrotation Yrotation
  JOINT Bip001_Spine
  {
    OFFSET 1.4188e-005 10.2191 -0.0116013
    CHANNELS 3 Zrotation Xrotation Yrotation
    JOINT Bip001_L_Thigh
    {
      OFFSET 11.0458 -10.2192 0.0116197
      CHANNELS 3 Zrotation Xrotation Yrotation
      JOINT Bip001_L_Calf
      {
        OFFSET -0.707118 -44.0221 0.360014
        CHANNELS 3 Zrotation Xrotation Yrotation
        JOINT Bip001_L_Foot
        {
          OFFSET -0.651902 -40.5938 -3.56146
          CHANNELS 3 Zrotation Xrotation Yrotation
          JOINT Bip001_L_Toe0
          {
            OFFSET 0.0530839 -10.2181 13.1504
            CHANNELS 3 Zrotation Xrotation Yrotation
            End Site
            {
              OFFSET -1.02532e-005 0 7.55606
            }
          }
        }
      }
    }
    JOINT Bip001_R_Thigh
    {
      OFFSET -11.0458 -10.2191 0.0115893
      CHANNELS 3 Zrotation Xrotation Yrotation
      JOINT Bip001_R_Calf
      {
        OFFSET 0.706994 -44.0221 0.35984
        CHANNELS 3 Zrotation Xrotation Yrotation
        JOINT Bip001_R_Foot
        {
          OFFSET 0.651786 -40.5938 -3.5613
          CHANNELS 3 Zrotation Xrotation Yrotation
          JOINT Bip001_R_Toe0
          {
            OFFSET -0.0531479 -10.2181 13.1504
            CHANNELS 3 Zrotation Xrotation Yrotation
            End Site
            {
              OFFSET -1.02894e-005 0 7.55606
            }
          }
        }
      }
    }
    JOINT Bip001_Spine1
    {
      OFFSET 1.87041e-005 14.5736 1.08638
      CHANNELS 3 Zrotation Xrotation Yrotation
      JOINT Bip001_Spine2
      {
        OFFSET 2.24614e-005 14.5058 -1.69078
        CHANNELS 3 Zrotation Xrotation Yrotation
        JOINT Bip001_Neck
        {
          OFFSET 2.20278e-005 15.3945 -0.489414
          CHANNELS 3 Zrotation Xrotation Yrotation
          JOINT Bip001_L_Clavicle
          {
            OFFSET 6.06036 -0.000579998 0.00836775
            CHANNELS 3 Zrotation Xrotation Yrotation
            JOINT Bip001_L_UpperArm
            {
              OFFSET 11.5509 -0.0600302 0.00193952
              CHANNELS 3 Zrotation Xrotation Yrotation
              JOINT Bip001_L_Forearm
              {
                OFFSET 25.9523 0.0806089 -2.15551
                CHANNELS 3 Zrotation Xrotation Yrotation
                JOINT Bip001_L_Hand
                {
                  OFFSET 32.2475 0.153767 1.63968
                  CHANNELS 3 Zrotation Xrotation Yrotation
                  JOINT Bip001_L_Finger0
                  {
                    OFFSET 6.04639 -2.20976 5.90322
                    CHANNELS 3 Zrotation Xrotation Yrotation
                    End Site
                    {
                      OFFSET 4.22375 -1.43895 0.606485
                    }
                  }
                  JOINT Bip001_L_Finger1
                  {
                    OFFSET 11.0826 -0.704819 -0.198153
                    CHANNELS 3 Zrotation Xrotation Yrotation
                    End Site
                    {
                      OFFSET 6.20027 -0.397518 -0.0787166
                    }
                  }
                }
              }
            }
          }
          JOINT Bip001_R_Clavicle
          {
            OFFSET -6.06037 -0.000563197 0.00835105
            CHANNELS 3 Zrotation Xrotation Yrotation
            JOINT Bip001_R_UpperArm
            {
              OFFSET -11.5509 -0.0599978 0.00190698
              CHANNELS 3 Zrotation Xrotation Yrotation
              JOINT Bip001_R_Forearm
              {
                OFFSET -25.9523 0.0806822 -2.15589
                CHANNELS 3 Zrotation Xrotation Yrotation
                JOINT Bip001_R_Hand
                {
                  OFFSET -32.2475 0.153859 1.63989
                  CHANNELS 3 Zrotation Xrotation Yrotation
                  JOINT Bip001_R_Finger0
                  {
                    OFFSET -6.04641 -2.20976 5.90317
                    CHANNELS 3 Zrotation Xrotation Yrotation
                    End Site
                    {
                      OFFSET -4.22376 -1.43895 0.60647
                    }
                  }
                  JOINT Bip001_R_Finger1
                  {
                    OFFSET -11.0826 -0.704794 -0.198182
                    CHANNELS 3 Zrotation Xrotation Yrotation
                    End Site
                    {
                      OFFSET -6.20028 -0.397504 -0.0787333
                    }
                  }
                }
              }
            }
          }
          JOINT Bip001_Head
          {
            OFFSET 1.09673e-005 11.2744 2.05948
            CHANNELS 3 Zrotation Xrotation Yrotation
            End Site
            {
              OFFSET 2.89576e-005 20.8808 -2.77728e-005
            }
          }
        }
      }
    }
  }
}
MOTION
Frames:	13
Frame Time:	0.04
33.8226 95.7708 -29.447 -0.262831 0.784359 -0.00767783 -0.285388 2.04639 -0.497235 5.70462 -3.27107 7.71234 0.111203 8.53983 2.56822 1.30458 -4.96616 0.0382976 2.45893 -5.01512 -1.86861 -3.68691 -3.80321 -0.17807 0.789029 9.5846 -1.28618 -6.61936 -7.57482 -3.13079 2.59822 -9.13026 3.35362 -0.553923 4.10502 -0.974048 -0.55396 4.10502 -0.974057 4.05702 -4.36053 -1.65256 -26.7703 5.84283 -2.38679 -56.7683 37.248 4.15544 12.495 -8.84584 -24.0695 8.12568 0.49629 -2.10247 1.59028e-015 6.36111e-015 -0 -3.18055e-015 6.36111e-015 -0 21.1444 12.5831 21.2888 54.4637 33.5067 -3.59955 -21.26 20.0044 12.1679 -0.447777 -9.09014 7.19291 1.59028e-015 -3.18055e-015 -1.59028e-015 0 0 -7.95139e-016 -2.29657 -2.79938 -0.106908 
33.8288 95.7739 -29.4265 -0.264636 0.807258 -0.0577648 -0.283369 2.04639 -0.497235 5.76151 -3.40217 7.81627 0.204998 8.94694 2.62476 -0.351641 -6.12035 0.0543744 1.63713 -3.85209 -1.20544 -3.68151 -3.83347 -0.0835963 0.791335 9.59883 -1.3194 -6.59473 -7.56326 -3.1307 2.59478 -9.10538 3.34101 -0.549811 4.10501 -0.981688 -0.549704 4.10501 -0.981555 4.04986 -4.39997 -1.65264 -26.5747 5.86704 -2.35595 -57.0139 37.3634 4.06226 12.6175 -8.87274 -23.9522 8.06112 0.528597 -2.10245 -1.59028e-015 -3.18055e-015 -0 0 3.18056e-015 -0 21.206 12.6299 21.2675 54.4489 33.487 -3.68878 -21.2723 19.9155 12.1891 -0.372655 -9.10994 7.24433 -1.59028e-015 0 -7.95139e-016 -1.59028e-015 -3.18056e-015 7.95139e-016 -2.25985 -2.65411 -0.106895 
33.8319 95.7766 -29.4023 -0.259684 0.830871 -0.0814636 -0.269665 2.04111 -0.491027 5.70768 -3.34358 8.68507 0.279467 8.78049 1.71765 0.58096 -5.5365 0.0430814 2.05944 -4.45127 -1.54947 -3.71137 -3.79332 -0.0708524 0.806348 9.52113 -1.30035 -6.60045 -7.54928 -3.1306 2.59085 -9.09313 3.3207 -0.522245 4.08443 -0.972793 -0.521593 4.08444 -0.973103 4.07524 -4.50889 -1.69817 -26.7366 5.92936 -2.20364 -56.8309 37.4141 4.02554 12.5367 -8.83862 -23.9654 8.08463 0.469398 -2.11439 1.59028e-015 6.36111e-015 -6.36111e-015 3.18055e-015 3.18056e-015 -3.18055e-015 21.1492 12.6963 21.1337 54.5228 33.5977 -3.85373 -21.3844 19.6703 12.2454 -0.236676 -9.04025 7.31709 3.18055e-015 0 -7.95139e-016 1.59028e-015 0 -0 -2.36723 -2.4105 -0.117663 
33.8688 95.7765 -29.3924 -0.166837 0.915555 -0.123597 -0.264065 2.01165 -0.450461 5.56733 -3.35051 8.41819 0.302551 8.71862 2.00846 0.166713 -5.74482 0.0455467 1.89206 -4.19831 -1.396 -3.85915 -3.90746 -0.112772 0.847755 9.64235 -1.28938 -6.62481 -7.61724 -3.14301 2.59689 -9.10651 3.35388 -0.512909 4.02529 -0.892584 -0.513841 4.0253 -0.892498 4.22573 -4.77615 -1.82406 -26.9413 6.11666 -2.00618 -56.915 37.4731 4.05913 12.6176 -8.66207 -23.951 8.14992 0.456763 -2.14614 -3.53112e-031 3.18055e-015 6.36111e-015 1.59028e-015 3.18056e-015 6.36111e-015 20.7773 12.7295 20.5385 54.7878 34.0053 -3.97824 -21.7265 19.5461 12.364 -0.0478748 -8.98634 7.45426 1.59028e-015 -3.18055e-015 -7.95139e-016 1.59028e-015 -3.18056e-015 -7.95139e-016 -2.65542 -2.01826 -0.143005 
33.8767 95.7817 -29.3781 -0.136482 0.926067 -0.148207 -0.263192 2.01177 -0.448644 5.4875 -3.2845 8.44201 0.298807 8.51984 1.96416 0.953471 -5.16969 0.048471 2.26717 -4.73988 -1.70698 -3.88729 -3.9217 0.00657924 0.867138 9.65342 -1.3169 -6.65289 -7.60539 -3.21744 2.59859 -9.12695 3.3571 -0.51188 4.02176 -0.882926 -0.512645 4.02177 -0.882612 4.22824 -4.91642 -1.8364 -26.9652 6.23511 -1.91494 -56.906 37.5092 4.06174 12.5993 -8.69455 -23.9926 8.11448 0.501767 -2.11075 0 1.27222e-014 -0 1.59028e-015 6.36111e-015 -0 20.7618 12.8228 20.3818 54.8302 34.1065 -4.33545 -22.0828 19.3763 12.5693 -0.0277892 -8.93977 7.47019 1.59028e-015 -6.36111e-015 -2.38542e-015 3.18055e-015 -6.36111e-015 -1.59028e-015 -2.68099 -1.79109 -0.149615 
33.8811 95.7814 -29.3583 -0.120806 0.91855 -0.132811 -0.262589 2.01218 -0.452794 5.54315 -3.36793 8.69873 0.391027 8.85531 1.86093 -0.610356 -6.24838 0.0493319 1.57776 -3.68152 -1.17569 -3.91155 -3.90891 0.00484373 0.872306 9.67314 -1.31151 -6.65918 -7.622 -3.21745 2.59932 -9.13554 3.3586 -0.508293 4.0171 -0.913074 -0.508738 4.01711 -0.912799 4.21173 -4.9531 -1.81129 -26.9371 6.27677 -1.92421 -56.9008 37.5548 4.09927 12.5598 -8.84291 -24.0226 8.18526 0.570361 -2.04718 1.59028e-015 -9.54166e-015 -0 4.77083e-015 0 -3.18055e-015 20.8072 12.8781 20.4174 54.8534 34.165 -4.83019 -22.5212 19.1668 12.7853 -0.0836348 -8.90782 7.47608 -1.59028e-015 0 -7.95139e-016 1.59028e-015 -3.18056e-015 -1.59028e-015 -2.67845 -1.62657 -0.127804 
33.8835 95.7768 -29.3423 -0.102355 0.937664 -0.131081 -0.261631 2.01295 -0.453205 5.51189 -3.36495 8.7468 0.398198 8.84361 1.77798 -0.477419 -6.16701 0.049564 1.58932 -3.73141 -1.17782 -3.93831 -3.94562 -0.128816 0.850128 9.74991 -1.28874 -6.64528 -7.67852 -3.11456 2.59983 -9.14032 3.36008 -0.506314 4.01606 -0.915539 -0.50641 4.01607 -0.915515 4.22991 -4.96075 -1.81981 -26.9384 6.27233 -1.90813 -56.9378 37.5474 4.17463 12.6291 -8.76379 -24.0146 8.03758 0.519847 -2.09264 -6.36111e-015 -3.18055e-015 -0 -4.77083e-015 0 -0 20.7787 12.8814 20.4148 54.9008 34.2109 -5.33245 -23.0365 19.042 13.0094 -0.0850239 -8.82249 7.53588 -3.18055e-015 3.18055e-015 -0 -1.59028e-015 3.18056e-015 7.95139e-016 -2.74714 -1.56142 -0.114634 
33.8744 95.7796 -29.3327 -0.113747 0.932421 -0.131809 -0.256609 2.01415 -0.453712 5.50108 -3.32349 8.42626 0.344819 8.72835 2.08082 -0.13016 -5.90446 0.0497417 1.79951 -4.00644 -1.3422 -3.92107 -3.92657 -0.285072 0.809106 9.73135 -1.2702 -6.61993 -7.6885 -2.98884 2.60005 -9.14028 3.36147 -0.4973 4.02003 -0.906426 -0.497302 4.02002 -0.906425 4.1555 -4.94859 -1.82642 -26.9012 6.28769 -1.97362 -56.8639 37.4576 4.17574 12.6037 -8.72977 -24.0283 8.03977 0.522803 -2.10192 -4.77083e-015 -6.36111e-015 -3.18055e-015 -6.36111e-015 -6.36111e-015 -0 20.8524 12.8722 20.4112 54.8893 34.1799 -5.91437 -23.6095 18.9236 13.3484 -0.15282 -8.77583 7.54069 3.18055e-015 -3.18055e-015 -1.59028e-015 6.36111e-015 0 -7.95139e-016 -2.70493 -1.60638 -0.148594 
33.8643 95.777 -29.3226 -0.119579 0.936977 -0.132237 -0.271297 2.02557 -0.482872 5.54199 -3.34338 8.3962 0.358645 8.78443 2.16973 -0.546375 -6.18529 0.0499352 1.58221 -3.71289 -1.17286 -3.89404 -3.93592 -0.252849 0.817614 9.71898 -1.2696 -6.6293 -7.69738 -2.99852 2.60025 -9.14012 3.36274 -0.525966 4.05332 -0.957044 -0.525966 4.05332 -0.957045 4.04473 -4.80749 -1.70264 -26.6363 6.23732 -2.19454 -56.8546 37.2019 4.11786 12.6078 -8.6856 -24.0049 8.01476 0.456718 -2.11983 3.18055e-015 3.18055e-015 3.18055e-015 -1.59028e-015 0 -0 21.149 12.9083 20.8528 54.7238 33.9951 -6.79475 -24.2486 18.6603 13.8327 -0.297306 -8.73305 7.49607 -3.18055e-015 -3.18055e-015 -7.95139e-016 0 0 -7.95139e-016 -2.54652 -1.7348 -0.1121 
33.8336 95.771 -29.296 -0.172217 0.875536 -0.108663 -0.279965 2.05205 -0.498146 5.64072 -3.33546 8.38371 0.311697 8.88061 2.14652 -0.52083 -6.23749 0.0500773 1.56639 -3.72644 -1.15445 -3.81094 -3.87032 -0.299982 0.779858 9.70039 -1.25338 -6.63078 -7.70758 -2.97209 2.6004 -9.13976 3.36379 -0.522683 4.10635 -0.986728 -0.522549 4.10636 -0.986835 3.51831 -5.13267 -1.68008 -26.0837 6.57422 -2.13271 -56.8348 37.0987 4.1137 12.5918 -8.71374 -24.0311 8.01088 0.4917 -2.11142 -9.54166e-015 6.36111e-015 -3.18055e-015 -6.36111e-015 6.36111e-015 -6.36111e-015 21.7825 13.3259 20.9844 54.7111 33.8884 -7.68058 -25.0473 18.3769 14.3069 -0.332978 -8.63616 7.57067 -0 -3.18055e-015 -0 -0 -3.18056e-015 -0 -1.88058 -1.25105 -0.342768 
33.8189 95.7691 -29.2969 -0.183972 0.862121 -0.101399 -0.279005 2.06348 -0.498176 5.65955 -3.32336 8.33385 0.275781 8.84601 2.15135 -0.30115 -6.10506 0.0501753 1.63894 -3.85983 -1.20552 -3.78331 -3.86015 -0.223755 0.780546 9.68901 -1.26893 -6.64285 -7.69017 -3.02203 2.60051 -9.13911 3.36457 -0.523819 4.1269 -0.984925 -0.523685 4.1269 -0.985075 3.45535 -5.29261 -1.69347 -26.0488 6.71428 -2.05455 -56.8239 37.0486 4.17326 12.5752 -8.72465 -24.1034 8.02388 0.437826 -2.1317 1.59028e-015 -9.54166e-015 6.36111e-015 -1.59028e-015 -6.36111e-015 6.36111e-015 21.791 13.4755 20.9714 54.8641 33.9265 -8.53336 -25.8939 17.8944 14.7515 -0.277795 -8.55369 7.64492 0 0 -7.95139e-016 3.18055e-015 0 -1.59028e-015 -1.94144 -0.96704 -0.357358 
33.8129 95.7691 -29.2861 -0.167727 0.82252 -0.0896799 -0.277437 2.0794 -0.498207 5.62502 -3.24552 7.72382 0.185907 8.69139 2.75162 0.0663324 -5.81089 0.0502359 1.86087 -4.16135 -1.39652 -3.79505 -3.82575 -0.230018 0.783372 9.68886 -1.28654 -6.6543 -7.7133 -3.00773 2.60015 -9.1305 3.36492 -0.52654 4.16089 -0.983413 -0.526417 4.16091 -0.983599 3.90917 -4.80593 -1.62481 -26.4429 6.27948 -2.34362 -56.8619 36.9845 4.2462 12.5572 -8.73607 -24.1548 8.14138 0.470265 -2.17406 3.18055e-015 -1.27222e-014 3.18055e-015 4.77083e-015 -1.27222e-014 3.18055e-015 21.292 13.0008 21.1537 54.9196 33.8961 -9.38439 -26.7098 17.513 15.2255 -0.332173 -8.49683 7.68046 0 9.54166e-015 -0 -8.82782e-032 6.36111e-015 7.95139e-016 -2.58112 -1.26706 -0.0319406 
33.798 95.7654 -29.2774 -0.162509 0.825114 -0.0728111 -0.2753 2.09002 -0.502518 5.6762 -3.30125 7.68077 0.167859 8.82619 2.8187 -0.420639 -6.16001 0.0503363 1.63067 -3.82613 -1.2081 -3.7727 -3.84733 -0.124971 0.794383 9.72114 -1.29558 -6.6809 -7.70954 -3.10043 2.59768 -9.13971 3.34511 -0.531017 4.18337 -0.995019 -0.530969 4.18337 -0.995074 3.84663 -5.09941 -1.68297 -26.4417 6.51856 -2.12347 -56.7558 37.0014 4.27249 12.5159 -8.68215 -24.1715 8.20853 0.471508 -2.24256 -9.54166e-015 -9.54166e-015 3.18055e-015 -7.95139e-015 -9.54167e-015 -3.18055e-015 21.2048 13.2614 21.1154 55.126 33.9381 -10.22 -27.5612 17.1181 15.6131 -0.250194 -8.38186 7.82262 -0 0 1.59028e-015 -0 0 7.95139e-016 -2.61131 -0.433141 -0.0852189 
